<svg xmlns="http://www.w3.org/2000/svg" viewBox="0 0 32 32">
  <defs/>
  <path fill="#212121" d="M30.77 22.1l-8.44-8.5.94-4.62c.24.1.5.14.75.14h.01a2.16 2.16 0 10-2-1.43l-4.97.6L8.97.16A.53.53 0 008.6 0a.53.53 0 00-.37.16l-1.51 1.5c-.2.2-.2.55 0 .75l.81.83a14.94 14.94 0 002.52 17.66c.05.04.1.08.15.1-.04.18-.05.36-.05.55v6.18h-6.4a2.67 2.67 0 00-2.67 2.67v1.07c0 .3.24.53.53.53h24.54c.29 0 .53-.24.53-.53V30.4c0-1.47-1.2-2.66-2.67-2.66h-6.4v-2.75a14.85 14.85 0 0010.09-1.46l.82.82a.53.53 0 00.75 0l1.51-1.5c.2-.2.2-.54 0-.75zM23.28 6.23a1.07 1.07 0 11.75 1.82 1.07 1.07 0 01-.75-1.82zm-1.26 3.5l-.6 2.95-1.17-1.18 1.78-1.76zm-.6-.9l-1.92 1.92L18 9.25l3.4-.41zM24 28.8c.89 0 1.6.72 1.6 1.6v.53H2.14v-.53c0-.88.71-1.6 1.6-1.6H24zm-7.46-2.13v1.06H11.2v-1.06h5.34zM11.2 25.6v-4.05c0-1.3 1.2-2.35 2.67-2.35s2.67 1.05 2.67 2.35v4.05H11.2zm6.4-1.7v-2.35c0-1.89-1.67-3.42-3.73-3.42a3.8 3.8 0 00-3.28 1.79A13.87 13.87 0 018.31 4.03l18.6 18.71a13.82 13.82 0 01-9.3 1.16zm11.3-.68L7.83 2.04l.75-.75 7.94 7.98 13.12 13.2-.76.75z"/>
  <path fill="#2196f3" d="M13.88 20.27a1.6 1.6 0 10-.01 3.2 1.6 1.6 0 100-3.2zm.37 1.98c-.1.1-.24.15-.38.15a.53.53 0 010-1.07.53.53 0 01.37.92z"/>
</svg>
