<svg xmlns="http://www.w3.org/2000/svg" viewBox="0 0 32 32">
  <defs/>
  <path fill="#212121" d="M31.3 15.3a15.3 15.3 0 10-19.96 14.58l.18.03c.12 0 .24-.03.35-.1.13-.07.23-.2.28-.35L16 17.21a1.91 1.91 0 10-.84-3.63l-5.1-5.1a.64.64 0 00-.9.9l5.1 5.1c-.4.8-.17 1.77.53 2.31l-3.68 11.67a14.04 14.04 0 1110.57-.35l-.4-1.87a.64.64 0 00-1.04-.34l-3.84 3.42a.64.64 0 00.23 1.09l4.9 1.56a.64.64 0 00.82-.74l-.4-1.84A15.26 15.26 0 0031.3 15.3zM16 14.66a.64.64 0 110 1.28.64.64 0 010-1.28zm2.1 14.87l2.18-1.95.6 2.84-2.79-.9z"/>
  <path fill="#2196f3" d="M15.35 3.19v1.27a.64.64 0 101.28 0V3.19a.64.64 0 00-1.28 0zM3.88 14.66a.64.64 0 000 1.28h1.27a.64.64 0 100-1.28H3.88zM28.1 15.94a.64.64 0 100-1.28h-1.27a.64.64 0 000 1.28h1.28z"/>
</svg>
